<?xml version="1.0" encoding="UTF-8" standalone="no"?>
<svg
   version="1.1"
   id="svg1"
   width="457.60947"
   height="84.959732"
   viewBox="0 0 112.91016 14.309008"
   xmlns="http://www.w3.org/2000/svg"
   xmlns:svg="http://www.w3.org/2000/svg"><defs
     id="defs1" /><g
     id="g1"
     transform="translate(-1.28125,-3.5085817)"><path
       id="text1"
       style="font-size:32.4934px;fill:#e67925;fill-opacity:1"
       d="M 1.28125,0.18164062 V 21.144531 H 6.5214844 V 0.18164062 Z m 10.376953,0 -4.0878905,6.34179688 v 5.1875005 l 6.1308595,9.433593 H 19.9375 L 12.128906,9.0917969 17.894531,0.18164062 Z m 9.798828,0 V 21.144531 h 5.242188 V 0.18164062 Z m 22.53711,0 c -1.118052,10e-9 -2.079214,0.40147871 -2.882813,1.20507818 C 40.307729,2.1903182 39.90625,3.1514799 39.90625,4.2695312 V 21.144531 h 5.240234 V 8.1992188 l 4.507813,6.9707032 c 0.628904,0.978295 1.572271,1.46875 2.830078,1.46875 1.257808,0 2.201174,-0.490455 2.830078,-1.46875 L 59.820312,8.1992188 V 21.144531 H 65.0625 V 4.2695312 c 0,-1.1180513 -0.401478,-2.079213 -1.205078,-2.8828124 -0.803599,-0.80359947 -1.764761,-1.20507818 -2.882813,-1.20507818 -1.467441,0 -2.620445,0.6467062 -3.458984,1.93945318 l -5.03125,7.7558593 -5.03125,-7.7558593 C 46.614587,0.82834682 45.461583,0.18164063 43.994141,0.18164062 Z m 26.728515,0 c -0.698782,0 -1.309897,0.26106967 -1.833984,0.78515626 -0.524086,0.48914752 -0.78711,1.10221632 -0.78711,1.83593752 V 5.421875 H 84.873047 L 81.361328,0.18164062 Z m 27.169922,0.0351563 c -1.079862,0 -1.957031,0.87716948 -1.957031,1.95703118 v 3.9121094 c 0,1.0798616 0.877169,1.9550781 1.957031,1.9550781 h 1.955078 v 1.3046875 h -10.43164 c -0.721267,0 -1.304688,0.581468 -1.304688,1.3027349 0,0.721266 0.583421,1.304687 1.304688,1.304687 h 3.912109 v 1.304687 h -1.957031 c -1.079862,0 -1.955078,0.875217 -1.955078,1.955079 V 19.125 c 0,1.079862 0.875216,1.955078 1.955078,1.955078 h 6.521484 c 1.079862,0 1.955078,-0.875216 1.955078,-1.955078 v -3.912109 c 0,-1.079862 -0.875216,-1.955079 -1.955078,-1.955079 h -1.957031 v -1.304687 h 10.431643 v 1.304687 h -1.95508 c -1.07986,0 -1.95703,0.875217 -1.95703,1.955079 V 19.125 c 0,1.079862 0.87717,1.955078 1.95703,1.955078 h 6.51953 c 1.07985,0 1.95703,-0.875216 1.95703,-1.955078 v -3.912109 c 0,-1.079862 -0.87718,-1.955079 -1.95703,-1.955079 h -1.95508 v -1.304687 h 3.91211 c 0.72125,0 1.30274,-0.583421 1.30274,-1.304687 0,-0.7212669 -0.58149,-1.3027349 -1.30274,-1.3027349 H 102.45508 V 8.0410156 h 1.95703 c 1.07986,0 1.95508,-0.8752165 1.95508,-1.9550781 V 2.1738281 c 0,-1.0798617 -0.87522,-1.95703123 -1.95508,-1.95703122 z m 0.650391,2.60937498 h 5.216801 V 5.4335938 H 98.542969 Z M 68.939453,6.4707031 77.849609,15.904297 H 67.052734 l 3.511719,5.240234 h 11.6875 c 0.698783,0 1.309898,-0.243274 1.833985,-0.732422 0.524086,-0.524086 0.787109,-1.152997 0.787109,-1.886718 v -1.572266 c 0,-0.663843 -0.490455,-1.537981 -1.46875,-2.621094 L 76.121094,6.4707031 Z m 23.083985,9.3945309 h 5.216796 v 2.607422 h -5.216796 z m 13.041012,0 h 5.21485 v 2.607422 h -5.21485 z m -77.318356,0.03906 v 5.240234 h 6.970703 l 3.511719,-5.240234 z" /></g></svg>
